# BloodRing 3D Model Asset: Cylinder
o Cylinder
v 0.5000 -1.0000 0.0000
v 0.4330 -1.0000 0.2500
v 0.2500 -1.0000 0.4330
v 0.0000 -1.0000 0.5000
v -0.2500 -1.0000 0.4330
v -0.4330 -1.0000 0.2500
v -0.5000 -1.0000 0.0000
v -0.4330 -1.0000 -0.2500
v -0.2500 -1.0000 -0.4330
v -0.0000 -1.0000 -0.5000
v 0.2500 -1.0000 -0.4330
v 0.4330 -1.0000 -0.2500
v 0.5000 1.0000 0.0000
v 0.4330 1.0000 0.2500
v 0.2500 1.0000 0.4330
v 0.0000 1.0000 0.5000
v -0.2500 1.0000 0.4330
v -0.4330 1.0000 0.2500
v -0.5000 1.0000 0.0000
v -0.4330 1.0000 -0.2500
v -0.2500 1.0000 -0.4330
v -0.0000 1.0000 -0.5000
v 0.2500 1.0000 -0.4330
v 0.4330 1.0000 -0.2500
vn -0.888071 0.459705 0.000000
vn -0.769085 0.459699 -0.444056
vn -0.444056 0.459699 -0.769085
vn 0.000000 0.459705 -0.888071
vn 0.444056 0.459699 -0.769085
vn 0.769085 0.459699 -0.444056
vn 0.888071 0.459705 0.000000
vn 0.769085 0.459699 0.444056
vn 0.444056 0.459699 0.769085
vn 0.000000 0.459705 0.888071
vn -0.444056 0.459699 0.769085
vn -0.769085 0.459699 0.444056
vn -0.888071 -0.459705 0.000000
vn -0.769085 -0.459699 -0.444056
vn -0.444056 -0.459699 -0.769085
vn 0.000000 -0.459705 -0.888071
vn 0.444056 -0.459699 -0.769085
vn 0.769085 -0.459699 -0.444056
vn 0.888071 -0.459705 0.000000
vn 0.769085 -0.459699 0.444056
vn 0.444056 -0.459699 0.769085
vn 0.000000 -0.459705 0.888071
vn -0.444056 -0.459699 0.769085
vn -0.769085 -0.459699 0.444056
f 12//12 11//11 10//10 9//9 8//8 7//7 6//6 5//5 4//4 3//3 2//2 1//1
f 13//13 14//14 15//15 16//16 17//17 18//18 19//19 20//20 21//21 22//22 23//23 24//24
f 1//1 2//2 14//14 13//13
f 2//2 3//3 15//15 14//14
f 3//3 4//4 16//16 15//15
f 4//4 5//5 17//17 16//16
f 5//5 6//6 18//18 17//17
f 6//6 7//7 19//19 18//18
f 7//7 8//8 20//20 19//19
f 8//8 9//9 21//21 20//20
f 9//9 10//10 22//22 21//21
f 10//10 11//11 23//23 22//22
f 11//11 12//12 24//24 23//23
f 12//12 1//1 13//13 24//24
