# BloodRing Shipped 3D Mesh: Mod_Char_Equalized_10
o Mod_Char_Equalized_10
v -1.0000 -1.0000 -1.0000
v 1.0000 -1.0000 -1.0000
v 1.0000 1.0000 -1.0000
v -1.0000 1.0000 -1.0000
v -1.0000 -1.0000 1.0000
v 1.0000 -1.0000 1.0000
v 1.0000 1.0000 1.0000
v -1.0000 1.0000 1.0000
vn 0.577350 0.577350 0.577350
vn -0.577350 0.577350 0.577350
vn -0.577350 -0.577350 0.577350
vn 0.577350 -0.577350 0.577350
vn 0.577350 0.577350 -0.577350
vn -0.577350 0.577350 -0.577350
vn -0.577350 -0.577350 -0.577350
vn 0.577350 -0.577350 -0.577350
f 1//1 2//2 3//3 4//4
f 5//5 8//8 7//7 6//6
f 1//1 5//5 6//6 2//2
f 2//2 6//6 7//7 3//3
f 3//3 7//7 8//8 4//4
f 5//5 1//1 4//4 8//8
