# BloodRing Production 3D Model: Rock
# Generated: 2026-07-03
o Rock

v 0.013943 0.615006 -0.022497
v -0.027679 1.041883 0.017670
v 0.039218 0.652163 -0.007808
v -0.047020 0.731183 0.000536
v -0.047346 0.719303 0.014988
v 0.004494 0.732264 0.008927
v 0.030943 0.603899 0.030582
v 0.019814 0.804150 -0.034452
v 0.045721 0.801957 -0.040725
v 0.259672 1.019390 0.010373
v 0.242845 0.954413 0.215755
v 0.047312 0.760633 0.305204
v -0.179192 0.893049 0.248303
v -0.292265 0.940530 -0.045418
v -0.239342 0.711444 -0.254153
v -0.026721 0.607499 -0.322203
v 0.225700 0.753072 -0.225114
v 0.270951 0.699079 0.043665
v 0.534419 0.675835 -0.032886
v 0.390336 0.488629 0.355369
v 0.048952 0.688800 0.525310
v -0.348962 0.773998 0.395023
v -0.546710 0.433482 -0.018455
v -0.390649 0.508613 -0.323132
v 0.037637 0.552165 -0.504071
v 0.356987 0.804110 -0.371538
v 0.496103 0.523584 0.006137
v 0.576274 0.380301 0.039782
v 0.414204 0.292637 0.474018
v 0.000953 0.261818 0.554712
v -0.463299 0.390587 0.453472
v -0.607784 0.255247 -0.011838
v -0.374652 0.366987 -0.377156
v 0.036078 0.242755 -0.577928
v 0.442435 0.368873 -0.447582
v 0.614096 0.266773 -0.006523
v 0.514988 0.117229 0.037585
v 0.343762 0.090035 0.335289
v 0.041263 0.112231 0.499460
v -0.353529 0.096538 0.332707
v -0.493364 0.092363 0.027863
v -0.364388 0.060034 -0.385008
v -0.048052 0.115746 -0.481743
v 0.400590 0.078451 -0.411631
v 0.557416 0.116817 -0.041435
v 0.298599 -0.076736 0.026060
v 0.238715 -0.080984 0.209660
v 0.004980 -0.090792 0.337243
v -0.219818 -0.086970 0.216062
v -0.277007 -0.086206 -0.018828
v -0.162617 -0.118410 -0.218322
v 0.001758 -0.080454 -0.327530
v 0.195941 -0.113992 -0.239121
v 0.272022 -0.076864 0.013110
v -0.027106 -0.228650 0.035964
v -0.042914 -0.148561 0.016898
v -0.028576 -0.135877 0.043551
v 0.007104 -0.176721 0.028462
v 0.030750 -0.142849 -0.040307
v -0.006895 -0.170829 -0.003298
v 0.022908 -0.200804 0.048417
v -0.040158 -0.168315 -0.016070
v 0.036167 -0.149839 -0.030979

vn 0.000000 1.000000 0.000000
vn 0.000000 1.000000 0.000000
vn 0.000000 1.000000 0.000000
vn -0.000000 1.000000 0.000000
vn -0.000000 1.000000 0.000000
vn -0.000000 1.000000 -0.000000
vn -0.000000 1.000000 -0.000000
vn 0.000000 1.000000 -0.000000
vn 0.000000 1.000000 -0.000000
vn 0.500000 0.866025 0.000000
vn 0.353553 0.866025 0.353553
vn 0.000000 0.866025 0.500000
vn -0.353553 0.866025 0.353553
vn -0.500000 0.866025 0.000000
vn -0.353553 0.866025 -0.353553
vn -0.000000 0.866025 -0.500000
vn 0.353553 0.866025 -0.353553
vn 0.500000 0.866025 -0.000000
vn 0.866025 0.500000 0.000000
vn 0.612372 0.500000 0.612372
vn 0.000000 0.500000 0.866025
vn -0.612372 0.500000 0.612372
vn -0.866025 0.500000 0.000000
vn -0.612372 0.500000 -0.612372
vn -0.000000 0.500000 -0.866025
vn 0.612372 0.500000 -0.612372
vn 0.866025 0.500000 -0.000000
vn 1.000000 0.000000 0.000000
vn 0.707107 0.000000 0.707107
vn 0.000000 0.000000 1.000000
vn -0.707107 0.000000 0.707107
vn -1.000000 0.000000 0.000000
vn -0.707107 0.000000 -0.707107
vn -0.000000 0.000000 -1.000000
vn 0.707107 0.000000 -0.707107
vn 1.000000 0.000000 -0.000000
vn 0.866025 -0.500000 0.000000
vn 0.612372 -0.500000 0.612372
vn 0.000000 -0.500000 0.866025
vn -0.612372 -0.500000 0.612372
vn -0.866025 -0.500000 0.000000
vn -0.612372 -0.500000 -0.612372
vn -0.000000 -0.500000 -0.866025
vn 0.612372 -0.500000 -0.612372
vn 0.866025 -0.500000 -0.000000
vn 0.500000 -0.866025 0.000000
vn 0.353553 -0.866025 0.353553
vn 0.000000 -0.866025 0.500000
vn -0.353553 -0.866025 0.353553
vn -0.500000 -0.866025 0.000000
vn -0.353553 -0.866025 -0.353553
vn -0.000000 -0.866025 -0.500000
vn 0.353553 -0.866025 -0.353553
vn 0.500000 -0.866025 -0.000000
vn 0.000000 -1.000000 0.000000
vn 0.000000 -1.000000 0.000000
vn 0.000000 -1.000000 0.000000
vn -0.000000 -1.000000 0.000000
vn -0.000000 -1.000000 0.000000
vn -0.000000 -1.000000 -0.000000
vn -0.000000 -1.000000 -0.000000
vn 0.000000 -1.000000 -0.000000
vn 0.000000 -1.000000 -0.000000

vt 0.000000 0.000000
vt 0.125000 0.000000
vt 0.250000 0.000000
vt 0.375000 0.000000
vt 0.500000 0.000000
vt 0.625000 0.000000
vt 0.750000 0.000000
vt 0.875000 0.000000
vt 1.000000 0.000000
vt 0.000000 0.166667
vt 0.125000 0.166667
vt 0.250000 0.166667
vt 0.375000 0.166667
vt 0.500000 0.166667
vt 0.625000 0.166667
vt 0.750000 0.166667
vt 0.875000 0.166667
vt 1.000000 0.166667
vt 0.000000 0.333333
vt 0.125000 0.333333
vt 0.250000 0.333333
vt 0.375000 0.333333
vt 0.500000 0.333333
vt 0.625000 0.333333
vt 0.750000 0.333333
vt 0.875000 0.333333
vt 1.000000 0.333333
vt 0.000000 0.500000
vt 0.125000 0.500000
vt 0.250000 0.500000
vt 0.375000 0.500000
vt 0.500000 0.500000
vt 0.625000 0.500000
vt 0.750000 0.500000
vt 0.875000 0.500000
vt 1.000000 0.500000
vt 0.000000 0.666667
vt 0.125000 0.666667
vt 0.250000 0.666667
vt 0.375000 0.666667
vt 0.500000 0.666667
vt 0.625000 0.666667
vt 0.750000 0.666667
vt 0.875000 0.666667
vt 1.000000 0.666667
vt 0.000000 0.833333
vt 0.125000 0.833333
vt 0.250000 0.833333
vt 0.375000 0.833333
vt 0.500000 0.833333
vt 0.625000 0.833333
vt 0.750000 0.833333
vt 0.875000 0.833333
vt 1.000000 0.833333
vt 0.000000 1.000000
vt 0.125000 1.000000
vt 0.250000 1.000000
vt 0.375000 1.000000
vt 0.500000 1.000000
vt 0.625000 1.000000
vt 0.750000 1.000000
vt 0.875000 1.000000
vt 1.000000 1.000000

f 1/1/1 2/2/2 11/11/11 10/10/10
f 2/2/2 3/3/3 12/12/12 11/11/11
f 3/3/3 4/4/4 13/13/13 12/12/12
f 4/4/4 5/5/5 14/14/14 13/13/13
f 5/5/5 6/6/6 15/15/15 14/14/14
f 6/6/6 7/7/7 16/16/16 15/15/15
f 7/7/7 8/8/8 17/17/17 16/16/16
f 8/8/8 9/9/9 18/18/18 17/17/17
f 10/10/10 11/11/11 20/20/20 19/19/19
f 11/11/11 12/12/12 21/21/21 20/20/20
f 12/12/12 13/13/13 22/22/22 21/21/21
f 13/13/13 14/14/14 23/23/23 22/22/22
f 14/14/14 15/15/15 24/24/24 23/23/23
f 15/15/15 16/16/16 25/25/25 24/24/24
f 16/16/16 17/17/17 26/26/26 25/25/25
f 17/17/17 18/18/18 27/27/27 26/26/26
f 19/19/19 20/20/20 29/29/29 28/28/28
f 20/20/20 21/21/21 30/30/30 29/29/29
f 21/21/21 22/22/22 31/31/31 30/30/30
f 22/22/22 23/23/23 32/32/32 31/31/31
f 23/23/23 24/24/24 33/33/33 32/32/32
f 24/24/24 25/25/25 34/34/34 33/33/33
f 25/25/25 26/26/26 35/35/35 34/34/34
f 26/26/26 27/27/27 36/36/36 35/35/35
f 28/28/28 29/29/29 38/38/38 37/37/37
f 29/29/29 30/30/30 39/39/39 38/38/38
f 30/30/30 31/31/31 40/40/40 39/39/39
f 31/31/31 32/32/32 41/41/41 40/40/40
f 32/32/32 33/33/33 42/42/42 41/41/41
f 33/33/33 34/34/34 43/43/43 42/42/42
f 34/34/34 35/35/35 44/44/44 43/43/43
f 35/35/35 36/36/36 45/45/45 44/44/44
f 37/37/37 38/38/38 47/47/47 46/46/46
f 38/38/38 39/39/39 48/48/48 47/47/47
f 39/39/39 40/40/40 49/49/49 48/48/48
f 40/40/40 41/41/41 50/50/50 49/49/49
f 41/41/41 42/42/42 51/51/51 50/50/50
f 42/42/42 43/43/43 52/52/52 51/51/51
f 43/43/43 44/44/44 53/53/53 52/52/52
f 44/44/44 45/45/45 54/54/54 53/53/53
f 46/46/46 47/47/47 56/56/56 55/55/55
f 47/47/47 48/48/48 57/57/57 56/56/56
f 48/48/48 49/49/49 58/58/58 57/57/57
f 49/49/49 50/50/50 59/59/59 58/58/58
f 50/50/50 51/51/51 60/60/60 59/59/59
f 51/51/51 52/52/52 61/61/61 60/60/60
f 52/52/52 53/53/53 62/62/62 61/61/61
f 53/53/53 54/54/54 63/63/63 62/62/62