# BloodRing 3D Model Asset: TrapSpike
o TrapSpike
v 0.1000 -0.2500 0.0000
v 0.0500 -0.2500 0.0866
v -0.0500 -0.2500 0.0866
v -0.1000 -0.2500 0.0000
v -0.0500 -0.2500 -0.0866
v 0.0500 -0.2500 -0.0866
v 0.1000 0.2500 0.0000
v 0.0500 0.2500 0.0866
v -0.0500 0.2500 0.0866
v -0.1000 0.2500 0.0000
v -0.0500 0.2500 -0.0866
v 0.0500 0.2500 -0.0866
vn -0.866024 0.500003 0.000000
vn -0.433008 0.499999 -0.750003
vn 0.433008 0.499999 -0.750003
vn 0.866024 0.500003 0.000000
vn 0.433008 0.499999 0.750003
vn -0.433008 0.499999 0.750003
vn -0.866024 -0.500003 0.000000
vn -0.433008 -0.499999 -0.750003
vn 0.433008 -0.499999 -0.750003
vn 0.866024 -0.500003 0.000000
vn 0.433008 -0.499999 0.750003
vn -0.433008 -0.499999 0.750003
f 6//6 5//5 4//4 3//3 2//2 1//1
f 7//7 8//8 9//9 10//10 11//11 12//12
f 1//1 2//2 8//8 7//7
f 2//2 3//3 9//9 8//8
f 3//3 4//4 10//10 9//9
f 4//4 5//5 11//11 10//10
f 5//5 6//6 12//12 11//11
f 6//6 1//1 7//7 12//12
