# BloodRing 3D Model Asset: TrapMine
o TrapMine
v 0.3000 -0.0750 0.0000
v 0.2121 -0.0750 0.2121
v 0.0000 -0.0750 0.3000
v -0.2121 -0.0750 0.2121
v -0.3000 -0.0750 0.0000
v -0.2121 -0.0750 -0.2121
v -0.0000 -0.0750 -0.3000
v 0.2121 -0.0750 -0.2121
v 0.3000 0.0750 0.0000
v 0.2121 0.0750 0.2121
v 0.0000 0.0750 0.3000
v -0.2121 0.0750 0.2121
v -0.3000 0.0750 0.0000
v -0.2121 0.0750 -0.2121
v -0.0000 0.0750 -0.3000
v 0.2121 0.0750 -0.2121
vn -0.879450 0.475991 0.000000
vn -0.621886 0.475935 -0.621886
vn 0.000000 0.475991 -0.879450
vn 0.621886 0.475935 -0.621886
vn 0.879450 0.475991 0.000000
vn 0.621886 0.475935 0.621886
vn 0.000000 0.475991 0.879450
vn -0.621886 0.475935 0.621886
vn -0.879450 -0.475991 0.000000
vn -0.621886 -0.475935 -0.621886
vn 0.000000 -0.475991 -0.879450
vn 0.621886 -0.475935 -0.621886
vn 0.879450 -0.475991 0.000000
vn 0.621886 -0.475935 0.621886
vn 0.000000 -0.475991 0.879450
vn -0.621886 -0.475935 0.621886
f 8//8 7//7 6//6 5//5 4//4 3//3 2//2 1//1
f 9//9 10//10 11//11 12//12 13//13 14//14 15//15 16//16
f 1//1 2//2 10//10 9//9
f 2//2 3//3 11//11 10//10
f 3//3 4//4 12//12 11//11
f 4//4 5//5 13//13 12//12
f 5//5 6//6 14//14 13//13
f 6//6 7//7 15//15 14//14
f 7//7 8//8 16//16 15//15
f 8//8 1//1 9//9 16//16
