# BloodRing 3D Model Asset: Barrel
o Barrel
v 0.6000 -0.7000 0.0000
v 0.4854 -0.7000 0.3527
v 0.1854 -0.7000 0.5706
v -0.1854 -0.7000 0.5706
v -0.4854 -0.7000 0.3527
v -0.6000 -0.7000 0.0000
v -0.4854 -0.7000 -0.3527
v -0.1854 -0.7000 -0.5706
v 0.1854 -0.7000 -0.5706
v 0.4854 -0.7000 -0.3527
v 0.6000 0.7000 0.0000
v 0.4854 0.7000 0.3527
v 0.1854 0.7000 0.5706
v -0.1854 0.7000 0.5706
v -0.4854 0.7000 0.3527
v -0.6000 0.7000 0.0000
v -0.4854 0.7000 -0.3527
v -0.1854 0.7000 -0.5706
v 0.1854 0.7000 -0.5706
v 0.4854 0.7000 -0.3527
vn -0.885131 0.465341 0.000000
vn -0.716047 0.465349 -0.520315
vn -0.273464 0.465333 -0.841833
vn 0.273464 0.465333 -0.841833
vn 0.716047 0.465349 -0.520315
vn 0.885131 0.465341 0.000000
vn 0.716047 0.465349 0.520315
vn 0.273464 0.465333 0.841833
vn -0.273464 0.465333 0.841833
vn -0.716047 0.465349 0.520315
vn -0.885131 -0.465341 0.000000
vn -0.716047 -0.465349 -0.520315
vn -0.273464 -0.465333 -0.841833
vn 0.273464 -0.465333 -0.841833
vn 0.716047 -0.465349 -0.520315
vn 0.885131 -0.465341 0.000000
vn 0.716047 -0.465349 0.520315
vn 0.273464 -0.465333 0.841833
vn -0.273464 -0.465333 0.841833
vn -0.716047 -0.465349 0.520315
f 10//10 9//9 8//8 7//7 6//6 5//5 4//4 3//3 2//2 1//1
f 11//11 12//12 13//13 14//14 15//15 16//16 17//17 18//18 19//19 20//20
f 1//1 2//2 12//12 11//11
f 2//2 3//3 13//13 12//12
f 3//3 4//4 14//14 13//13
f 4//4 5//5 15//15 14//14
f 5//5 6//6 16//16 15//15
f 6//6 7//7 17//17 16//16
f 7//7 8//8 18//18 17//17
f 8//8 9//9 19//19 18//18
f 9//9 10//10 20//20 19//19
f 10//10 1//1 11//11 20//20
